<?xml version="1.0" encoding="UTF-8" standalone="no"?>
<!-- Created with Inkscape (http://www.inkscape.org/) -->

<svg
   xmlns:dc="http://purl.org/dc/elements/1.1/"
   xmlns:cc="http://creativecommons.org/ns#"
   xmlns:rdf="http://www.w3.org/1999/02/22-rdf-syntax-ns#"
   xmlns:svg="http://www.w3.org/2000/svg"
   xmlns="http://www.w3.org/2000/svg"
   xmlns:sodipodi="http://sodipodi.sourceforge.net/DTD/sodipodi-0.dtd"
   xmlns:inkscape="http://www.inkscape.org/namespaces/inkscape"
   width="210mm"
   height="297mm"
   id="svg1148"
   sodipodi:version="0.32"
   inkscape:version="0.48.4 r9939"
   sodipodi:docname="cautin_dibujo_colorear.svg"
   version="1.1">
  <title
     id="title3027">cautin dibujo colorear</title>
  <defs
     id="defs3" />
  <sodipodi:namedview
     id="base"
     pagecolor="#ffffff"
     bordercolor="#666666"
     borderopacity="1.0"
     inkscape:pageopacity="0.0"
     inkscape:pageshadow="2"
     inkscape:zoom="0.61399264"
     inkscape:cx="50.899787"
     inkscape:cy="708.37869"
     inkscape:current-layer="layer1"
     inkscape:window-width="1024"
     inkscape:window-height="719"
     inkscape:window-x="0"
     inkscape:window-y="0"
     showgrid="false"
     inkscape:window-maximized="1" />
  <metadata
     id="metadata4">
    <rdf:RDF>
      <cc:Work
         rdf:about="">
        <dc:format>image/svg+xml</dc:format>
        <dc:type
           rdf:resource="http://purl.org/dc/dcmitype/StillImage" />
        <dc:title>cautin dibujo colorear</dc:title>
        <dc:creator>
          <cc:Agent>
            <dc:title>AUTOMATIZANOS</dc:title>
          </cc:Agent>
        </dc:creator>
        <dc:publisher>
          <cc:Agent>
            <dc:title>www.automatizanos.com</dc:title>
          </cc:Agent>
        </dc:publisher>
        <dc:source>www.automatizanos.com</dc:source>
        <dc:language>ESPANOL</dc:language>
        <dc:subject>
          <rdf:Bag>
            <rdf:li>herramienta</rdf:li>
            <rdf:li>cautin</rdf:li>
            <rdf:li>soldador</rdf:li>
            <rdf:li>soldar</rdf:li>
            <rdf:li>mecanica</rdf:li>
            <rdf:li>electricidad</rdf:li>
            <rdf:li>electronica</rdf:li>
            <rdf:li>automatizacion</rdf:li>
            <rdf:li>industria</rdf:li>
            <rdf:li>industrial</rdf:li>
            <rdf:li>colorear</rdf:li>
          </rdf:Bag>
        </dc:subject>
        <dc:description>herramienta cautin soldador dibujo para colorear lineas</dc:description>
        <dc:contributor>
          <cc:Agent>
            <dc:title>www.automatizanos.com</dc:title>
          </cc:Agent>
        </dc:contributor>
      </cc:Work>
    </rdf:RDF>
  </metadata>
  <g
     inkscape:label="Layer 1"
     inkscape:groupmode="layer"
     id="layer1">
    <g
       id="g4583">
      <path
         style="fill:none;fill-opacity:1.0000000;fill-rule:evenodd;stroke:#000000;stroke-width:1.2500000;stroke-linecap:butt;stroke-linejoin:miter;stroke-miterlimit:4.0000000;stroke-opacity:1.0000000;stroke-dasharray:none;"
         d="M 401.23297,341.06250 L 393.42047,347.12500 C 393.51341,347.24488 394.39030,349.24452 394.76422,352.06250 C 395.13814,354.88048 395.25533,358.50401 395.13922,362.31250 C 394.90700,369.92947 393.75101,378.39661 392.54547,383.21875 C 390.16666,392.73397 388.77650,398.97479 386.76422,403.90625 C 384.75194,408.83771 382.15282,412.73640 376.54547,418.34375 C 366.24139,428.64784 359.84749,433.59898 346.17047,440.43750 C 335.89771,445.57388 326.42457,456.96465 318.98297,464.40625 C 319.15899,464.23023 316.76183,465.69719 313.51422,466.65625 C 310.26661,467.61531 306.06365,468.50832 301.70172,469.25000 C 292.97787,470.73336 283.38373,471.59375 279.26422,471.59375 C 265.33781,471.59375 249.70642,474.46875 236.07672,474.46875 C 221.68105,474.46876 207.28489,474.46875 192.88922,474.46875 C 178.49355,474.46876 164.09739,474.46875 149.70172,474.46875 C 134.34634,474.46876 118.99460,474.46875 103.63922,474.46875 C 97.309818,474.46876 90.501986,476.27175 84.076720,478.21875 C 77.651454,480.16575 71.583888,482.32634 67.889220,483.25000 C 52.647007,487.06055 46.116558,489.67891 36.826720,498.96875 C 31.351836,504.44363 28.148870,509.34928 26.076720,514.68750 C 24.004570,520.02572 22.959663,525.49948 21.107970,532.90625 C 16.359056,551.90191 26.515440,563.62744 30.139220,570.87500 C 31.143406,572.88336 32.492148,573.76792 33.795470,574.56250 C 35.098792,575.35708 36.498725,575.98088 38.045470,576.56250 C 41.138960,577.72574 44.812174,578.67132 48.639220,579.50000 C 56.293311,581.15736 64.259308,582.25000 69.107970,582.25000 L 69.107970,572.37500 C 65.942517,572.37500 57.751482,571.40150 50.701720,569.87500 C 47.176839,569.11175 43.859358,568.19434 41.514220,567.31250 C 40.341651,566.87158 39.409921,566.42340 38.920470,566.12500 C 38.675745,565.97580 38.591747,565.83233 38.607970,565.84375 C 33.825305,556.61987 27.005019,550.09931 30.701720,535.31250 C 32.614591,527.66102 33.647711,522.44566 35.264220,518.28125 C 36.880729,514.11684 38.998215,510.73475 43.795470,505.93750 C 52.288790,497.44418 55.263391,496.60176 70.295470,492.84375 C 74.947146,491.68083 80.846361,489.53756 86.951720,487.68750 C 93.057079,485.83744 99.338256,484.34375 103.63922,484.34375 C 118.99460,484.34375 134.34634,484.34376 149.70172,484.34375 C 164.09739,484.34375 178.49354,484.34376 192.88922,484.34375 C 207.28489,484.34375 221.68104,484.34376 236.07672,484.34375 C 251.03256,484.34375 266.77277,481.46875 279.26422,481.46875 C 284.62552,481.46875 294.12372,480.53890 303.35797,478.96875 C 307.97510,478.18368 312.48369,477.25990 316.32672,476.12500 C 320.16975,474.99010 323.24532,474.08140 325.95172,471.37500 C 333.81800,463.50872 343.74690,452.69616 350.57672,449.28125 C 364.91130,442.11395 372.87856,435.97942 383.54547,425.31250 C 389.74359,419.11438 393.42680,413.73619 395.92047,407.62500 C 398.41414,401.51381 399.76643,394.95990 402.10797,385.59375 C 403.58947,379.66773 404.75948,370.98042 405.01422,362.62500 C 405.14159,358.44729 405.02592,354.37078 404.54547,350.75000 C 404.06502,347.12922 403.45746,343.93163 401.23297,341.06250 z "
         id="path2426" />
      <rect
         style="color:#000000;fill:none;fill-opacity:1.0000000;fill-rule:evenodd;stroke:#000000;stroke-width:3.7500000;stroke-linecap:butt;stroke-linejoin:miter;stroke-miterlimit:4.0000000;stroke-dashoffset:0.0000000;stroke-opacity:1.0000000;marker:none;marker-start:none;marker-mid:none;marker-end:none;visibility:visible;stroke-dasharray:none;"
         id="rect3359"
         width="22.834085"
         height="101.68143"
         x="396.77994"
         y="530.79529"
         rx="0.0000000"
         ry="0.0000000"
         transform="translate(20.47327,-3.053783)" />
      <rect
         style="color:#000000;fill:none;fill-opacity:1.0000000;fill-rule:evenodd;stroke:#000000;stroke-width:3.7500000;stroke-linecap:butt;stroke-linejoin:miter;stroke-miterlimit:4.0000000;stroke-dashoffset:0.0000000;stroke-opacity:1.0000000;marker:none;marker-start:none;marker-mid:none;marker-end:none;visibility:visible;stroke-dasharray:none;"
         id="rect4246"
         width="12.526041"
         height="101.76093"
         x="384.33170"
         y="530.75549"
         rx="0.0000000"
         ry="0.36497796"
         transform="translate(20.47327,-3.053783)" />
      <path
         style="color:#000000;fill:none;fill-opacity:1.0000000;fill-rule:evenodd;stroke:#000000;stroke-width:3.7500000;stroke-linecap:butt;stroke-linejoin:miter;stroke-miterlimit:4.0000000;stroke-dashoffset:0.0000000;stroke-opacity:1.0000000;marker:none;marker-start:none;marker-mid:none;marker-end:none;visibility:visible;stroke-dasharray:none;"
         d="M 384.25614,530.90832 L 363.09915,547.69093 L 363.11770,615.42153 L 384.25614,632.36368 L 384.25614,530.90832 z "
         id="rect4248"
         sodipodi:nodetypes="ccccc"
         transform="translate(20.47327,-3.053783)" />
      <path
         style="fill:none;fill-opacity:1.0000000;fill-rule:evenodd;stroke:#000000;stroke-width:3.7500000;stroke-linecap:butt;stroke-linejoin:miter;stroke-opacity:1.0000000;stroke-miterlimit:4.0000000;stroke-dasharray:none;"
         d="M 363.21952,548.91527 L 276.55781,553.16303 L 276.55781,610.10897 L 363.21952,614.35673 L 363.21952,548.91527 z "
         id="path1165"
         sodipodi:nodetypes="ccccc"
         transform="translate(20.47327,-3.053783)" />
      <path
         style="fill:none;fill-opacity:1.0000000;fill-rule:evenodd;stroke:#000000;stroke-width:3.7500000;stroke-linecap:butt;stroke-linejoin:miter;stroke-opacity:1.0000000;stroke-miterlimit:4.0000000;stroke-dasharray:none;"
         d="M 276.51297,554.38188 L 48.840499,559.41062 C 44.318769,574.39958 44.668799,589.05546 48.766309,603.87787 L 276.45732,608.89013 L 276.51297,554.38188 z "
         id="path1176"
         sodipodi:nodetypes="ccccc"
         transform="translate(20.47327,-3.053783)" />
      <rect
         style="color:#000000;fill:none;fill-opacity:1.0000000;fill-rule:evenodd;stroke:#000000;stroke-width:3.7500000;stroke-linecap:butt;stroke-linejoin:miter;stroke-miterlimit:4.0000000;stroke-dashoffset:0.0000000;stroke-opacity:1.0000000;marker:none;marker-start:none;marker-mid:none;marker-end:none;visibility:visible;display:block;stroke-dasharray:none;"
         id="rect1189"
         width="4.8798628"
         height="95.660706"
         x="419.68594"
         y="533.80560"
         transform="translate(20.47327,-3.053783)" />
      <rect
         style="color:#000000;fill:none;fill-opacity:1.0000000;fill-rule:evenodd;stroke:#000000;stroke-width:3.7500000;stroke-linecap:butt;stroke-linejoin:miter;stroke-miterlimit:4.0000000;stroke-dashoffset:0.0000000;stroke-opacity:1.0000000;marker:none;marker-start:none;marker-mid:none;marker-end:none;visibility:visible;display:block;stroke-dasharray:none;"
         id="rect1811"
         width="0.97183454"
         height="95.660706"
         x="424.71338"
         y="533.80560"
         transform="translate(20.47327,-3.053783)" />
      <rect
         style="color:#000000;fill:none;fill-opacity:1.0000000;fill-rule:evenodd;stroke:#000000;stroke-width:3.7500000;stroke-linecap:butt;stroke-linejoin:miter;stroke-miterlimit:4.0000000;stroke-dashoffset:0.0000000;stroke-opacity:1.0000000;marker:none;marker-start:none;marker-mid:none;marker-end:none;visibility:visible;display:block;stroke-dasharray:none;"
         id="rect1812"
         width="20.801565"
         height="42.530590"
         x="425.59857"
         y="560.37067"
         ry="2.9988904"
         rx="2.6832178"
         transform="translate(20.47327,-3.053783)" />
      <rect
         style="color:#000000;fill:none;fill-opacity:1.0000000;fill-rule:evenodd;stroke:#000000;stroke-width:3.7500000;stroke-linecap:butt;stroke-linejoin:miter;stroke-miterlimit:4.0000000;stroke-dashoffset:0.0000000;stroke-opacity:1.0000000;marker:none;marker-start:none;marker-mid:none;marker-end:none;visibility:visible;display:block;stroke-dasharray:none;"
         id="rect1813"
         width="4.9022799"
         height="39.085743"
         x="446.74451"
         y="562.09308"
         rx="0.0000000"
         ry="0.0000000"
         transform="translate(20.47327,-3.053783)" />
      <path
         style="color:#000000;fill:none;fill-opacity:1.0000000;fill-rule:evenodd;stroke:#000000;stroke-width:3.7500000;stroke-linecap:butt;stroke-linejoin:miter;stroke-miterlimit:4.0000000;stroke-dashoffset:0.0000000;stroke-opacity:1.0000000;marker:none;marker-start:none;marker-mid:none;marker-end:none;visibility:visible;display:block;stroke-dasharray:none;"
         d="M 451.62819,562.17016 L 451.62819,601.10183 L 456.95180,598.50782 L 456.95180,564.78562 L 451.62819,562.17016 z "
         id="rect1814"
         sodipodi:nodetypes="ccccc"
         transform="translate(20.47327,-3.053783)" />
      <rect
         style="color:#000000;fill:none;fill-opacity:1.0000000;fill-rule:evenodd;stroke:#000000;stroke-width:3.7500000;stroke-linecap:butt;stroke-linejoin:miter;stroke-miterlimit:4.0000000;stroke-dashoffset:0.0000000;stroke-opacity:1.0000000;marker:none;marker-start:none;marker-mid:none;marker-end:none;visibility:visible;display:block;stroke-dasharray:none;"
         id="rect1818"
         width="180.89273"
         height="33.645847"
         x="457.01022"
         y="564.81305"
         transform="translate(20.47327,-3.053783)" />
      <path
         style="color:#000000;fill:none;fill-opacity:1.0000000;fill-rule:evenodd;stroke:#000000;stroke-width:3.7500000;stroke-linecap:butt;stroke-linejoin:miter;stroke-miterlimit:4.0000000;stroke-dashoffset:0.0000000;stroke-opacity:1.0000000;marker:none;marker-start:none;marker-mid:none;marker-end:none;visibility:visible;display:block;stroke-dasharray:none;"
         d="M 638.13201,564.82596 L 638.15056,598.44603 L 646.90577,589.99542 L 646.88721,573.29685 L 638.13201,564.82596 z "
         id="rect1819"
         sodipodi:nodetypes="ccccc"
         transform="translate(20.47327,-3.053783)" />
      <path
         style="color:#000000;fill:none;fill-opacity:1.0000000;fill-rule:evenodd;stroke:#000000;stroke-width:3.7500000;stroke-linecap:butt;stroke-linejoin:miter;stroke-miterlimit:4.0000000;stroke-dashoffset:0.0000000;stroke-opacity:1.0000000;marker:none;marker-start:none;marker-mid:none;marker-end:none;visibility:visible;display:block;stroke-dasharray:none;"
         d="M 646.73076,573.39940 L 646.73076,589.87260 L 706.64458,582.99581 L 706.64458,580.25675 L 646.73076,573.39940 z "
         id="rect1823"
         sodipodi:nodetypes="ccccc"
         transform="translate(20.47327,-3.053783)" />
      <path
         style="color:#000000;fill:none;fill-opacity:1.0000000;fill-rule:evenodd;stroke:#000000;stroke-width:0.34317982;stroke-linecap:butt;stroke-linejoin:miter;stroke-miterlimit:4.0000000;stroke-dashoffset:0.0000000;stroke-opacity:1.0000000;marker:none;marker-start:none;marker-mid:none;marker-end:none;visibility:visible;"
         d="M 538.48709,598.64527 L 542.98709,603.70777 L 581.20584,603.70777 L 581.42459,603.70777 L 619.67459,603.70777 L 624.17459,598.64527 L 581.42459,598.70777 L 581.20584,598.70777 L 538.48709,598.64527 z "
         id="rect10606"
         transform="matrix(0.593573,0.000000,0.000000,0.593573,53.80169,-91.19507)" />
      <rect
         ry="3.4618890"
         y="517.84882"
         x="602.25323"
         height="66.131546"
         width="4.5924683"
         id="rect13316"
         style="color:#000000;fill:none;fill-opacity:1.0000000;fill-rule:evenodd;stroke:#000000;stroke-width:3.1588364;stroke-linecap:butt;stroke-linejoin:miter;stroke-miterlimit:4.0000000;stroke-dashoffset:0.0000000;stroke-opacity:1.0000000;marker:none;marker-start:none;marker-mid:none;marker-end:none;visibility:visible;stroke-dasharray:none;"
         rx="3.4618890"
         transform="matrix(0.593573,0.000000,0.000000,0.593573,53.87672,-87.86468)" />
      <rect
         ry="3.4618890"
         y="517.84882"
         x="555.56317"
         height="66.131546"
         width="4.5924683"
         id="rect13318"
         style="color:#000000;fill:none;fill-opacity:1.0000000;fill-rule:evenodd;stroke:#000000;stroke-width:3.1588364;stroke-linecap:butt;stroke-linejoin:miter;stroke-miterlimit:4.0000000;stroke-dashoffset:0.0000000;stroke-opacity:1.0000000;marker:none;marker-start:none;marker-mid:none;marker-end:none;visibility:visible;stroke-dasharray:none;"
         rx="3.4618890"
         transform="matrix(0.593573,0.000000,0.000000,0.593573,53.87672,-87.86468)" />
      <path
         style="color:#000000;fill:none;fill-opacity:1.0000000;fill-rule:evenodd;stroke:#000000;stroke-width:6.3176728;stroke-linecap:butt;stroke-linejoin:miter;stroke-miterlimit:4.0000000;stroke-dashoffset:0.0000000;stroke-opacity:1.0000000;marker:none;marker-start:none;marker-mid:none;marker-end:none;visibility:visible;stroke-dasharray:none;"
         d="M 613.48709,649.60681 L 592.86209,659.04431 L 581.26834,659.45056 L 569.83084,659.23181 L 549.17459,649.79431 L 563.23709,673.13806 L 581.79959,674.88806 L 599.45584,672.95056 L 613.48709,649.60681 z "
         id="path13296"
         sodipodi:nodetypes="ccccccccc"
         transform="matrix(0.593573,0.000000,0.000000,0.593573,53.80169,-91.19507)" />
      <rect
         style="color:#000000;fill:none;fill-opacity:1.0000000;fill-rule:evenodd;stroke:#000000;stroke-width:6.3176728;stroke-linecap:butt;stroke-linejoin:miter;stroke-miterlimit:4.0000000;stroke-dashoffset:0.0000000;stroke-opacity:1.0000000;marker:none;marker-start:none;marker-mid:none;marker-end:none;visibility:visible;stroke-dasharray:none;"
         id="rect13306"
         width="89.849800"
         height="10.087617"
         x="536.40594"
         y="588.28564"
         ry="3.4618890"
         rx="3.4618890"
         transform="matrix(0.593573,0.000000,0.000000,0.593573,53.80169,-91.19507)" />
      <path
         sodipodi:nodetypes="ccccccccccc"
         id="path11503"
         d="M 619.69022,603.64527 L 581.34647,603.70777 L 581.31522,603.73902 L 542.97147,603.67652 L 544.77793,641.53067 L 569.87772,659.14527 L 581.47147,659.64527 L 581.47147,659.61402 L 592.78397,659.11402 L 617.88376,643.64307 L 619.69022,603.64527 z "
         style="fill:none;fill-opacity:1.0000000;fill-rule:evenodd;stroke:#000000;stroke-width:6.3176728;stroke-linecap:butt;stroke-linejoin:miter;stroke-miterlimit:4.0000000;stroke-opacity:1.0000000;stroke-dasharray:none;"
         transform="matrix(0.593573,0.000000,0.000000,0.593573,53.80169,-91.19507)" />
      <path
         sodipodi:nodetypes="ccccccccccc"
         id="rect13310"
         d="M 580.40897,608.39527 L 566.94022,608.39527 C 559.83157,608.25267 556.19023,610.46004 556.19022,615.02027 L 564.59647,643.83277 C 564.59647,644.97051 565.65061,645.89528 566.94022,645.89527 L 581.65897,645.89527 L 595.72147,645.83277 C 597.01109,645.83279 598.06522,644.90801 598.06522,643.77027 L 606.47147,614.95777 C 606.47146,610.39754 602.83012,608.19017 595.72147,608.33277 C 590.62129,608.37336 585.50026,608.24549 580.40897,608.39527 z "
         style="color:#000000;fill:none;fill-opacity:1.0000000;fill-rule:evenodd;stroke:#000000;stroke-width:6.3176728;stroke-linecap:butt;stroke-linejoin:miter;stroke-miterlimit:4.0000000;stroke-dashoffset:0.0000000;stroke-opacity:1.0000000;marker:none;marker-start:none;marker-mid:none;marker-end:none;visibility:visible;stroke-dasharray:none;"
         transform="matrix(0.593573,0.000000,0.000000,0.593573,53.80169,-91.19507)" />
      <path
         style="color:#000000;fill:none;fill-opacity:1.0000000;fill-rule:evenodd;stroke:#000000;stroke-width:6.3176728;stroke-linecap:butt;stroke-linejoin:miter;stroke-miterlimit:4.0000000;stroke-dashoffset:0.0000000;stroke-opacity:1.0000000;marker:none;marker-start:none;marker-mid:none;marker-end:none;visibility:visible;stroke-dasharray:none;"
         d="M 562.89334,673.32919 C 562.89334,673.32919 568.52774,734.83409 572.42459,738.29794 C 577.33626,741.37075 585.34081,741.52897 590.23709,738.29794 C 594.13395,734.83407 599.76834,673.32919 599.76834,673.32919 L 581.26834,675.04794 L 581.26834,675.07919 L 562.89334,673.32919 z "
         id="path13320"
         sodipodi:nodetypes="ccccccc"
         transform="matrix(0.593573,0.000000,0.000000,0.593573,53.80169,-91.19507)" />
         
    </g>
  </g>
</svg>
