<?xml version="1.0"?>
<svg width="260.8" height="260.8" xmlns="http://www.w3.org/2000/svg" xmlns:svg="http://www.w3.org/2000/svg">
 <defs>
  <style>.a{fill:#ffffff;}.b{fill:#c6c6c6;}.c{fill:#211715;}</style>
 </defs>
 <g class="layer">
  <title>Layer 1</title>
  <path class="b" d="m221.46,146.67c-2.58,-4.72 -5.13,-9.4 -6.87,-12.58l-163.98,0c-3.33,6.29 -10.27,19.47 -14.01,26.46l192.44,0c-1.84,-3.36 -4.72,-8.65 -7.58,-13.88z" id="svg_3"/>
  <path class="a" d="m95.92,167.36c-0.99,4.52 -2.23,10.22 -2.91,13.6c13.19,0 59.65,0 75.2,0c-1.1,-5.4 -3.62,-16.79 -4.27,-19.71c0,0 -0.06,-0.26 -0.15,-0.7l-66.35,0l-0.16,0.7c-0.25,1.09 -0.76,3.39 -1.36,6.11z" id="svg_4"/>
  <path class="c" d="m33.44,47.39l-0.02,-34.08c0,-2.03 -0.02,-3.86 1.16,-5.6a6.62,6.62 0 0 1 4.35,-2.77a23.75,23.75 0 0 1 3.9,-0.09l3.65,0q19.93,0 39.86,-0.01l49.26,-0.01l47.77,-0.02l34.9,-0.01a23.33,23.33 0 0 1 3.51,0.06a6.7,6.7 0 0 1 4.3,2.64a7.98,7.98 0 0 1 1.26,5.05q0,2.9 0,5.79q0,13.15 0.01,26.31q0.01,29.87 0.02,59.74l0.01,27.1a12.95,12.95 0 0 0 0.09,3.24a8.21,8.21 0 0 0 1.21,2.07l1.52,2.35q2.5,3.84 4.99,7.68l10.4,16l5.13,7.9q1.25,1.92 2.49,3.84a21.63,21.63 0 0 1 2.37,3.93a10.5,10.5 0 0 1 0.42,3.82a9.66,9.66 0 0 1 -0.3,3.56a4.4,4.4 0 0 1 -3.7,2.74c-0.74,0.07 -1.5,0.01 -2.24,0.01l-232.56,0c-2.67,0 -5.35,0.06 -8.01,0a4.4,4.4 0 0 1 -3.09,-1.27c-1.54,-1.52 -1.29,-3.56 -1.3,-5.56a12.68,12.68 0 0 1 0.29,-3.76a15.7,15.7 0 0 1 2.28,-3.94q2.59,-3.9 5.19,-7.81q5.26,-7.91 10.51,-15.83q2.52,-3.8 5.04,-7.61q1.26,-1.9 2.51,-3.8q0.7,-1.06 1.4,-2.12a8.86,8.86 0 0 0 1.36,-2.27a10.23,10.23 0 0 0 0.09,-2.59l0,-2.51q0,-2.74 0,-5.48q0,-6.55 -0.01,-13.1l-0.01,-31.32q-0.01,-16.14 -0.01,-32.27c0,-3.09 -4.8,-3.09 -4.8,0q0.01,36.3 0.02,72.6l0.01,14.04l0.33,-1.22q-11.86,17.99 -23.81,35.92c-1.83,2.76 -4.26,5.57 -4.94,8.9a22.42,22.42 0 0 0 -0.24,4.59a17.31,17.31 0 0 0 0.32,4.46a9.31,9.31 0 0 0 8.89,6.76c3.58,0.07 7.17,0 10.75,0l230.63,0c0.33,0 0.66,0.01 0.99,0a9.32,9.32 0 0 0 8.8,-6.44a13.52,13.52 0 0 0 0.41,-4.17a17.94,17.94 0 0 0 -0.45,-5.19a17.05,17.05 0 0 0 -2.3,-4.42l-3.04,-4.7q-5.89,-9.07 -11.78,-18.14q-5.69,-8.75 -11.37,-17.5l0.33,1.21q-0.01,-20.8 -0.02,-41.61q0,-22.57 -0.01,-45.14q0,-10.29 -0.01,-20.58l0,-9.37c0,-2.93 0.37,-6.18 -0.41,-9.03a11.48,11.48 0 0 0 -6.7,-7.51c-2.21,-0.91 -4.5,-0.85 -6.84,-0.85l-10.96,0l-29.77,0.01l-35.99,0.02l-37.8,0.01l-34.58,0.01l-26.95,0.01c-2.83,0 -5.53,0.11 -8.03,1.64a11.5,11.5 0 0 0 -5.4,8.4a43.23,43.23 0 0 0 -0.1,5.32l0,5.7q0,6.32 0,12.64q0,6.82 0.01,13.64c0.01,3.08 4.81,3.08 4.81,-0.01z" id="svg_5"/>
  <path class="c" d="m242.7,178.56l-215.49,0c-2.91,0 -5.83,-0.06 -8.73,0c-0.13,0 -0.25,0 -0.38,0c-3.09,0 -3.09,4.8 0,4.8l215.49,0c2.91,0 5.83,0.06 8.74,0c0.12,0 0.25,0 0.37,0c3.09,0 3.1,-4.8 0,-4.8z" id="svg_6"/>
  <path class="c" d="m223.53,145.46q-3.43,-6.29 -6.87,-12.58a2.4,2.4 0 0 0 -2.07,-1.19l-143.75,0c-6.64,0 -13.31,-0.18 -19.95,0c-0.1,0 -0.19,0 -0.28,0a2.39,2.39 0 0 0 -2.08,1.19c-4.66,8.82 -9.3,17.66 -14.01,26.46a2.42,2.42 0 0 0 2.08,3.61l184.59,0c2.51,0 5.02,0.06 7.53,0c0.1,0 0.21,0 0.32,0a2.42,2.42 0 0 0 2.07,-3.61q-3.79,-6.94 -7.58,-13.88c-1.48,-2.71 -5.63,-0.29 -4.14,2.42q3.79,6.94 7.58,13.88l2.07,-3.61l-184.59,0c-2.5,0 -5.04,-0.15 -7.53,0c-0.11,0 -0.22,0 -0.32,0l2.07,3.61c4.71,-8.8 9.35,-17.63 14.01,-26.46l-2.07,1.19l157.26,0c2.13,0 4.3,0.13 6.43,0c0.1,0 0.19,0 0.29,0l-2.07,-1.19q3.43,6.3 6.87,12.58c1.48,2.72 5.62,0.3 4.14,-2.42z" id="svg_7"/>
  <path class="c" d="m95.33,181.59c1.33,-6.58 2.8,-13.15 4.26,-19.71a2.45,2.45 0 0 0 -1.67,-2.95a2.43,2.43 0 0 0 -2.95,1.68c-1.47,6.56 -2.94,13.12 -4.27,19.71a2.46,2.46 0 0 0 1.67,2.95a2.42,2.42 0 0 0 2.96,-1.68z" id="svg_8"/>
  <path class="c" d="m161.63,161.88c1.47,6.56 2.92,13.13 4.27,19.71a2.4,2.4 0 0 0 4.62,-1.27c-1.34,-6.59 -2.8,-13.15 -4.26,-19.71a2.4,2.4 0 1 0 -4.63,1.27z" id="svg_9"/>
  <path class="c" d="m201.2,12.5l-29.26,0.01l-34.78,0.01l-35.6,0.02l-31.7,0l-22.98,0.01l-2.07,0a2.43,2.43 0 0 0 -2.4,2.4q0.01,23.21 0.02,46.43q0.01,24.23 0.02,48.47q0,6.02 0,12.04a2.44,2.44 0 0 0 2.4,2.4l25.92,-0.01l36.91,-0.02l41.18,-0.01l37.59,-0.01l27.3,-0.01l2.25,0a2.44,2.44 0 0 0 2.4,-2.4l-0.02,-42.67q-0.01,-21.81 -0.02,-43.62l-0.01,-20.65a2.44,2.44 0 0 0 -2.4,-2.4l-14.75,0.01c-3.09,0 -3.09,4.8 0,4.8l14.75,0l-2.4,-2.4q0.01,19.46 0.02,38.93q0.01,22.33 0.02,44.65q0,11.68 0.01,23.35l2.4,-2.4l-25.5,0.01l-36.7,0.01l-41.16,0.02l-37.78,0.01l-27.7,0.01l-2.31,0l2.4,2.4q-0.01,-16.42 -0.01,-32.84l-0.02,-48.43q-0.01,-12.83 -0.01,-25.66l-2.4,2.4l21.69,-0.02l30.89,-0.01l35.38,-0.01l35.14,-0.01l30.06,-0.01l3.24,0c3.08,0 3.08,-4.8 -0.01,-4.8z" id="svg_10"/>
 </g>
</svg>