<?xml version="1.0" encoding="iso-8859-1"?>
<!-- Generator: Adobe Illustrator 19.1.0, SVG Export Plug-In . SVG Version: 6.00 Build 0)  -->
<svg version="1.1" id="Capa_1" xmlns="http://www.w3.org/2000/svg" xmlns:xlink="http://www.w3.org/1999/xlink" x="0px" y="0px"
	 viewBox="0 0 63 63" style="enable-background:new 0 0 63 63;" xml:space="preserve">
<g>
	<g id="group-4svg">
		<path id="path-1_14_" d="M22.884,61.341c-0.424,0-0.845-0.179-1.142-0.526c-0.538-0.629-0.463-1.575,0.167-2.114l14.228-12.158
			c1.056-0.9,2.388-1.357,3.79-1.373l3.589,0.045c5.889,0,10.256-1.483,12.964-4.409c1.455-1.573,2.096-3.248,2.36-4.351H46.789
			c-1.254,0-2.503-0.433-3.513-1.219l-2.526-2.145c-1.396-1.084-1.985-2.735-1.985-4.525v-7.125c0-1.456,0.316-2.792,1.318-3.863
			l3.11-3.407c1.03-1.1,2.412-1.709,4.082-1.709H59.73c-3.739-4.968-9.62-7.804-16.233-7.804c-8.519,0-16.195,5.603-19.099,13.942
			c-0.06,0.17-0.237,0.99-0.594,4.894c-0.266,2.921-1.724,5.661-3.999,7.516L2.45,45.18c-0.643,0.523-1.587,0.428-2.112-0.213
			c-0.523-0.642-0.429-1.586,0.213-2.111l17.357-14.169c1.655-1.35,2.715-3.341,2.908-5.466c0.429-4.69,0.621-5.239,0.747-5.604
			C24.888,8.07,33.702,1.659,43.497,1.659c7.812,0,14.75,3.482,19.036,9.556c0.547,0.775,0.622,1.91,0.179,2.761
			c-0.471,0.903-1.363,1.485-2.272,1.485H47.275c-0.588,0-1.412,0.133-2.002,0.763l-3.004,3.406
			c-0.474,0.509-0.504,1.119-0.504,1.811v7.125c0,0.858,0.166,1.646,0.83,2.16l2.633,2.146c0.483,0.375,0.971,0.584,1.561,0.584
			H60.44c0.16,0,1.564,0.052,1.564,1.864c0,1.441-0.686,4.634-3.258,7.452c-3.294,3.612-8.424,5.442-15.249,5.442l-3.604-0.045
			c-0.681-0.023-1.304,0.226-1.808,0.655L23.858,60.981C23.576,61.222,23.229,61.341,22.884,61.341z" />
	</g>
</g>
<g>
</g>
<g>
</g>
<g>
</g>
<g>
</g>
<g>
</g>
<g>
</g>
<g>
</g>
<g>
</g>
<g>
</g>
<g>
</g>
<g>
</g>
<g>
</g>
<g>
</g>
<g>
</g>
<g>
</g>
</svg>
