<?xml version="1.0" encoding="iso-8859-1"?>
<!-- Generator: Adobe Illustrator 16.0.0, SVG Export Plug-In . SVG Version: 6.00 Build 0)  -->
<!DOCTYPE svg PUBLIC "-//W3C//DTD SVG 1.1//EN" "http://www.w3.org/Graphics/SVG/1.1/DTD/svg11.dtd">
<svg version="1.1" id="Capa_1" xmlns="http://www.w3.org/2000/svg" xmlns:xlink="http://www.w3.org/1999/xlink" x="0px" y="0px"
	 width="611.999px" height="612px" viewBox="0 0 611.999 612" style="enable-background:new 0 0 611.999 612;" xml:space="preserve"
	>
<g>
	<path d="M608.152,237.254c-2.631-1.543-5.912-1.411-8.408,0.335l-88.867,62.105l-109.961-51.438l-10.41-120.979l88.854-62.085
		c2.502-1.746,3.753-4.79,3.203-7.791s-2.794-5.406-5.752-6.158c-14.433-3.66-29.301-5.519-44.189-5.519
		c-70.176,0-134.491,41.125-163.854,104.774c-16.993,36.861-21.054,78.485-11.595,117.833L16.192,436.73
		c-8.399,5.857-13.96,14.697-15.66,24.893c-1.684,10.129,0.654,20.383,6.583,28.893l41.164,58.912
		c7.347,10.551,19.327,16.848,32.044,16.848c7.771,0,15.239-2.342,21.6-6.777l247.824-173.121c2.553,1.336,4.907,2.871,7.203,3.936
		c23.926,11.045,49.313,17.02,75.461,17.02c0.004,0,0.012,0,0.016,0c70.165,0,134.515-41.525,163.931-105.206
		c8.381-18.146,13.631-37.508,15.602-57.183C612.268,241.911,610.779,238.793,608.152,237.254z M582.215,295.586
		c-26.881,58.177-85.676,96.154-149.784,96.154c-0.008,0-0.012,0-0.016,0c-23.876,0-47.065-5.492-68.922-15.582
		c-3.18-1.475-6.532-3.371-10.538-5.57c-2.604-1.418-5.776-1.34-8.208,0.355L93.002,546.757c-3.722,2.6-8.106,3.949-12.674,3.949
		c-7.619,0-14.818-3.812-19.253-10.189l-41.172-58.924c-3.585-5.141-5-11.326-3.987-17.414c1.001-6.018,4.268-11.229,9.198-14.67
		l245.415-171.497c2.697-1.886,3.925-5.265,3.056-8.445c-10.211-37.368-6.898-77.34,9.338-112.545
		c26.822-58.137,85.588-95.708,149.699-95.708c7.628,0,15.247,0.534,22.796,1.594l-77.526,54.17
		c-2.284,1.594-3.539,4.287-3.302,7.058l11.182,129.943c0.238,2.775,1.938,5.21,4.463,6.392l118.118,55.253
		c2.525,1.182,5.479,0.924,7.768-0.67l77.574-54.03C591.17,272.802,587.336,284.498,582.215,295.586z"/>
</g>
<g>
</g>
<g>
</g>
<g>
</g>
<g>
</g>
<g>
</g>
<g>
</g>
<g>
</g>
<g>
</g>
<g>
</g>
<g>
</g>
<g>
</g>
<g>
</g>
<g>
</g>
<g>
</g>
<g>
</g>
</svg>
