<?xml version="1.0" standalone="no"?>
<!DOCTYPE svg PUBLIC "-//W3C//DTD SVG 20010904//EN"
 "http://www.w3.org/TR/2001/REC-SVG-20010904/DTD/svg10.dtd">
<svg version="1.0" xmlns="http://www.w3.org/2000/svg"
 width="4299.000000pt" height="4922.000000pt" viewBox="0 0 4299.000000 4922.000000"
 preserveAspectRatio="xMidYMid meet">

<g transform="translate(0.000000,4922.000000) scale(0.100000,-0.100000)"
fill="#000000" stroke="none">
<path d="M31228 48197 l-3 -1022 -4705 -5 -4705 -5 -590 -2011 c-325 -1105
-594 -2017 -597 -2025 -4 -11 -36 -22 -95 -33 -145 -29 -564 -123 -783 -177
-834 -206 -1773 -507 -2545 -813 -161 -64 -191 -73 -205 -62 -51 45 -3610
2995 -3618 3000 -9 5 -3826 -2548 -3870 -2588 -10 -10 120 -452 643 -2185 360
-1196 655 -2179 655 -2185 0 -7 -73 -80 -163 -163 -727 -675 -1537 -1575
-2171 -2411 -89 -119 -112 -143 -130 -140 -11 3 -990 236 -2174 518 -1326 317
-2156 510 -2162 504 -8 -9 -2320 -4074 -2320 -4080 0 -2 783 -724 1740 -1604
957 -881 1740 -1605 1740 -1611 0 -5 -27 -100 -61 -212 -280 -938 -496 -1936
-625 -2894 l-38 -282 -76 -19 c-41 -10 -1041 -268 -2223 -572 l-2147 -554 0
-2326 0 -2325 2383 -639 c1310 -352 2387 -641 2393 -643 7 -2 37 -106 67 -231
190 -770 421 -1529 682 -2241 l68 -183 -71 -72 c-174 -178 -2984 -3150 -2988
-3161 -4 -8 2283 -3838 2313 -3874 1 -2 989 222 2195 499 l2192 504 65 -74
c731 -824 1546 -1623 2319 -2275 80 -67 82 -71 77 -105 -11 -70 -565 -4365
-565 -4381 0 -12 640 -379 2106 -1209 l2106 -1193 23 24 c12 13 658 722 1435
1574 777 853 1422 1560 1434 1572 l21 23 106 -35 c1330 -431 2702 -723 4083
-870 132 -14 241 -26 242 -28 1 -1 172 -638 380 -1414 l378 -1413 31 -4 c16
-3 759 -16 1650 -30 891 -14 1668 -28 1728 -32 l107 -5 0 3457 0 3457 -47 -6
c-920 -115 -1605 -155 -2463 -144 -727 10 -1314 52 -1990 142 -4079 547 -7802
2616 -10456 5810 -1056 1272 -1913 2693 -2545 4221 -653 1579 -1056 3279
-1183 4984 -57 753 -60 1599 -10 2335 195 2878 1130 5615 2738 8015 1377 2055
3245 3812 5377 5058 2177 1271 4587 2018 7094 2196 569 41 587 41 4230 41
l3520 0 3 -749 c2 -653 4 -747 17 -742 18 7 11586 6025 11674 6074 63 34 64
35 40 47 -13 7 -2623 1125 -5799 2485 -3176 1360 -5810 2488 -5852 2506 l-78
33 -2 -1022z m2806 -2517 c959 -69 1744 -781 1905 -1727 107 -635 -92 -1281
-545 -1762 -265 -282 -648 -502 -1024 -590 -231 -54 52 -51 -4512 -51 -2886 0
-4240 3 -4298 11 -849 105 -1545 715 -1761 1543 -124 477 -71 976 150 1421
212 428 542 753 971 959 219 105 491 178 724 195 168 12 8222 13 8390 1z"/>
<path d="M27310 45510 c-74 -4 -168 -8 -208 -9 l-73 -1 21 -30 c12 -17 70 -74
128 -127 136 -121 190 -184 260 -303 76 -127 115 -228 153 -390 80 -342 106
-417 170 -475 59 -53 89 -57 398 -53 256 3 278 4 311 23 19 12 43 36 55 55 18
32 20 51 19 245 0 295 -39 488 -131 655 -179 328 -496 445 -1103 410z"/>
<path d="M30140 45501 l-215 -6 56 -60 c31 -33 105 -109 164 -170 184 -190
274 -324 331 -495 28 -83 29 -90 28 -295 -1 -234 -13 -360 -50 -515 -50 -210
-121 -310 -328 -457 -114 -81 -266 -221 -266 -245 0 -17 646 -3 750 17 350 66
564 205 699 455 50 93 93 224 117 355 14 77 18 149 18 315 0 199 -2 222 -26
310 -58 214 -227 526 -353 651 -70 70 -134 106 -222 124 -83 17 -406 24 -703
16z"/>
<path d="M32991 45501 l-164 -6 97 -122 c231 -291 345 -513 392 -761 21 -114
21 -338 -2 -469 -41 -244 -121 -389 -348 -633 -87 -93 -206 -240 -206 -253 0
-5 156 -7 348 -4 312 3 355 6 427 25 147 38 261 102 379 212 326 306 446 796
310 1275 -33 120 -129 314 -203 412 -140 185 -286 280 -482 313 -83 13 -340
19 -548 11z"/>
<path d="M32230 45399 c-257 -37 -464 -246 -540 -543 -20 -78 -20 -108 -20
-1603 l0 -1523 436 0 437 0 -7 293 c-14 674 -17 1463 -7 1845 20 745 48 960
146 1127 56 95 63 117 73 204 l8 83 -48 24 c-79 40 -218 82 -308 93 -93 12
-91 12 -170 0z"/>
<path d="M26475 45343 c-298 -63 -538 -377 -595 -778 -32 -227 14 -396 161
-596 159 -216 408 -417 928 -751 258 -166 356 -241 428 -328 220 -265 180
-552 -118 -864 -47 -50 -123 -120 -168 -156 l-80 -65 177 -7 c97 -4 258 -11
358 -17 193 -10 332 -3 419 23 124 38 304 177 387 299 124 183 178 406 178
738 0 258 -51 409 -200 587 -118 141 -275 256 -645 472 -278 162 -402 248
-501 345 -98 96 -153 178 -185 277 -20 61 -24 92 -23 188 1 101 6 134 42 273
23 87 42 173 42 190 0 123 -135 177 -435 175 -82 0 -159 -2 -170 -5z"/>
<path d="M29300 45325 c-280 -77 -482 -371 -520 -755 -27 -271 -40 -1301 -20
-1550 48 -601 190 -943 442 -1071 122 -62 281 -74 447 -34 85 20 271 94 277
109 3 7 -2 48 -11 92 -11 56 -34 115 -80 205 -76 149 -101 224 -115 339 -6 52
-10 439 -10 1016 0 779 2 945 15 1009 10 56 37 124 94 244 64 134 111 252 111
278 0 9 -150 72 -230 98 -107 35 -310 45 -400 20z"/>
<path d="M30660 43105 c-8 -2 -32 -7 -54 -10 -21 -3 -49 -17 -62 -30 -23 -23
-24 -30 -24 -152 0 -211 -27 -365 -89 -515 -40 -95 -88 -157 -181 -233 -41
-34 -89 -82 -106 -107 -29 -43 -56 -129 -67 -219 l-5 -36 126 -6 c205 -11 370
-8 476 8 488 74 743 432 772 1090 l7 141 -159 18 c-380 42 -597 59 -634 51z"/>
<path d="M26068 43040 c-145 -23 -197 -87 -197 -245 -2 -312 93 -572 261 -719
61 -53 174 -115 266 -145 180 -58 501 -73 591 -26 72 37 79 130 26 335 -87
335 -125 536 -125 666 0 34 -3 75 -6 92 -6 30 -7 30 -83 36 -141 11 -675 15
-733 6z"/>
<path d="M23935 38259 c-4005 -193 -7712 -1929 -10431 -4884 -1454 -1581
-2569 -3483 -3237 -5520 -617 -1883 -855 -3878 -701 -5880 274 -3573 1825
-6933 4380 -9489 3096 -3098 7344 -4694 11714 -4401 2645 178 5167 1040 7375
2520 629 422 1201 870 1780 1394 198 180 746 725 926 921 1096 1195 2001 2557
2651 3990 720 1586 1155 3253 1298 4975 36 436 41 565 47 1095 8 789 -24 1377
-113 2080 -393 3095 -1713 5949 -3832 8285 -192 211 -805 823 -1007 1005
-1596 1434 -3356 2470 -5328 3136 -1340 452 -2702 707 -4137 774 -244 11
-1144 11 -1385 -1z m1400 -1449 c2244 -121 4363 -763 6275 -1903 1763 -1051
3286 -2506 4425 -4227 1729 -2613 2502 -5736 2195 -8870 -272 -2766 -1393
-5394 -3205 -7510 -465 -543 -1032 -1109 -1565 -1561 -2738 -2322 -6241 -3464
-9825 -3204 -2584 188 -5056 1109 -7145 2663 -565 421 -979 780 -1521 1321
-498 499 -848 899 -1251 1431 -1432 1892 -2352 4152 -2642 6491 -83 667 -100
959 -101 1709 0 659 9 854 60 1370 280 2785 1401 5398 3233 7531 473 552 1071
1140 1641 1616 836 698 1798 1319 2769 1790 1725 836 3553 1290 5485 1363 261
10 902 4 1172 -10z"/>
<path d="M16840 29316 l0 -3916 1248 0 c686 0 1393 5 1572 10 682 21 1168 70
1495 151 986 245 1530 735 1725 1554 104 439 120 723 120 2200 0 1326 -11
1600 -75 1974 -50 283 -109 472 -215 686 -149 298 -341 506 -660 718 -393 261
-980 428 -1725 491 -400 34 -577 38 -2022 43 l-1463 5 0 -3916z m2865 2694
c295 -22 456 -58 615 -137 171 -85 267 -205 323 -402 l22 -76 3 -2030 c2
-1436 0 -2053 -8 -2107 -28 -193 -106 -336 -241 -440 -182 -141 -513 -208
-1026 -208 l-173 0 0 2705 0 2705 173 0 c94 0 235 -5 312 -10z"/>
<path d="M28150 33194 c-1073 -38 -1746 -211 -2182 -563 -331 -266 -540 -687
-642 -1291 -62 -363 -61 -337 -61 -2155 0 -1279 3 -1692 13 -1800 69 -753 248
-1247 567 -1569 377 -382 958 -579 1930 -658 213 -17 1059 -17 1300 0 378 27
795 73 1016 112 743 133 1118 467 1249 1113 54 270 53 241 57 1670 l4 1327
-1451 0 -1450 0 0 -600 0 -600 315 0 315 0 0 -879 0 -878 -157 -21 c-368 -50
-422 -54 -618 -49 -220 5 -297 21 -424 87 -232 121 -314 327 -341 852 -13 254
-13 3512 0 3768 27 548 103 741 333 855 121 60 199 76 392 82 146 4 184 2 269
-15 287 -60 431 -222 490 -552 26 -142 36 -272 43 -548 l6 -262 1136 2 1136 3
-2 270 c-2 288 -12 436 -44 634 -51 324 -157 608 -308 829 -335 489 -981 749
-2041 822 -157 10 -696 19 -850 14z"/>
<path d="M16750 23760 c0 -682 2 -810 14 -810 17 0 7720 -977 7764 -985 l32
-6 0 -4079 0 -4080 1450 0 1450 0 0 4080 0 4079 33 9 c17 5 1046 242 2285 528
l2252 519 0 777 0 778 -7640 0 -7640 0 0 -810z"/>
<path d="M16670 17670 l0 -3870 3030 0 3030 0 0 880 0 880 -1687 2 -1688 3 -3
703 -2 702 1480 0 1480 0 0 805 0 805 -1477 2 -1478 3 0 595 0 595 1688 3
1687 2 0 880 0 880 -3030 0 -3030 0 0 -3870z"/>
<path d="M29010 17670 l0 -3870 1330 0 1330 0 0 3870 0 3870 -1330 0 -1330 0
0 -3870z"/>
</g>
</svg>
